<?xml version="1.0" encoding="UTF-8"?>
<svg xmlns="http://www.w3.org/2000/svg" width="64" height="64" viewBox="0 0 64 64" shape-rendering="crispEdges">
<rect x="28" y="0" width="8" height="1" fill="#00f3ff" />
<rect x="28" y="1" width="8" height="1" fill="#00f3ff" />
<rect x="28" y="2" width="8" height="1" fill="#00f3ff" />
<rect x="28" y="3" width="8" height="1" fill="#00f3ff" />
<rect x="24" y="4" width="4" height="1" fill="#142026" />
<rect x="28" y="4" width="8" height="1" fill="#00f3ff" />
<rect x="36" y="4" width="4" height="1" fill="#142026" />
<rect x="24" y="5" width="4" height="1" fill="#142026" />
<rect x="28" y="5" width="8" height="1" fill="#00f3ff" />
<rect x="36" y="5" width="4" height="1" fill="#142026" />
<rect x="20" y="6" width="6" height="1" fill="#142026" />
<rect x="26" y="6" width="12" height="1" fill="#00f3ff" />
<rect x="38" y="6" width="6" height="1" fill="#142026" />
<rect x="20" y="7" width="6" height="1" fill="#142026" />
<rect x="26" y="7" width="12" height="1" fill="#00f3ff" />
<rect x="38" y="7" width="6" height="1" fill="#142026" />
<rect x="8" y="8" width="8" height="1" fill="#00f3ff" />
<rect x="16" y="8" width="4" height="1" fill="#142026" />
<rect x="20" y="8" width="6" height="1" fill="#00f3ff" />
<rect x="26" y="8" width="12" height="1" fill="#142026" />
<rect x="38" y="8" width="6" height="1" fill="#00f3ff" />
<rect x="44" y="8" width="4" height="1" fill="#142026" />
<rect x="48" y="8" width="8" height="1" fill="#00f3ff" />
<rect x="8" y="9" width="8" height="1" fill="#00f3ff" />
<rect x="16" y="9" width="4" height="1" fill="#142026" />
<rect x="20" y="9" width="6" height="1" fill="#00f3ff" />
<rect x="26" y="9" width="12" height="1" fill="#142026" />
<rect x="38" y="9" width="6" height="1" fill="#00f3ff" />
<rect x="44" y="9" width="4" height="1" fill="#142026" />
<rect x="48" y="9" width="8" height="1" fill="#00f3ff" />
<rect x="8" y="10" width="8" height="1" fill="#00f3ff" />
<rect x="16" y="10" width="2" height="1" fill="#142026" />
<rect x="18" y="10" width="2" height="1" fill="#00f3ff" />
<rect x="20" y="10" width="24" height="1" fill="#142026" />
<rect x="44" y="10" width="2" height="1" fill="#00f3ff" />
<rect x="46" y="10" width="2" height="1" fill="#142026" />
<rect x="48" y="10" width="8" height="1" fill="#00f3ff" />
<rect x="8" y="11" width="8" height="1" fill="#00f3ff" />
<rect x="16" y="11" width="2" height="1" fill="#142026" />
<rect x="18" y="11" width="2" height="1" fill="#00f3ff" />
<rect x="20" y="11" width="24" height="1" fill="#142026" />
<rect x="44" y="11" width="2" height="1" fill="#00f3ff" />
<rect x="46" y="11" width="2" height="1" fill="#142026" />
<rect x="48" y="11" width="8" height="1" fill="#00f3ff" />
<rect x="8" y="12" width="10" height="1" fill="#00f3ff" />
<rect x="18" y="12" width="8" height="1" fill="#142026" />
<rect x="26" y="12" width="12" height="1" fill="#00f3ff" />
<rect x="38" y="12" width="8" height="1" fill="#142026" />
<rect x="46" y="12" width="10" height="1" fill="#00f3ff" />
<rect x="8" y="13" width="10" height="1" fill="#00f3ff" />
<rect x="18" y="13" width="8" height="1" fill="#142026" />
<rect x="26" y="13" width="12" height="1" fill="#00f3ff" />
<rect x="38" y="13" width="8" height="1" fill="#142026" />
<rect x="46" y="13" width="10" height="1" fill="#00f3ff" />
<rect x="8" y="14" width="8" height="1" fill="#00f3ff" />
<rect x="16" y="14" width="6" height="1" fill="#142026" />
<rect x="22" y="14" width="4" height="1" fill="#00f3ff" />
<rect x="26" y="14" width="12" height="1" fill="#142026" />
<rect x="38" y="14" width="4" height="1" fill="#00f3ff" />
<rect x="42" y="14" width="6" height="1" fill="#142026" />
<rect x="48" y="14" width="8" height="1" fill="#00f3ff" />
<rect x="8" y="15" width="8" height="1" fill="#00f3ff" />
<rect x="16" y="15" width="6" height="1" fill="#142026" />
<rect x="22" y="15" width="4" height="1" fill="#00f3ff" />
<rect x="26" y="15" width="12" height="1" fill="#142026" />
<rect x="38" y="15" width="4" height="1" fill="#00f3ff" />
<rect x="42" y="15" width="6" height="1" fill="#142026" />
<rect x="48" y="15" width="8" height="1" fill="#00f3ff" />
<rect x="8" y="16" width="4" height="1" fill="#142026" />
<rect x="12" y="16" width="2" height="1" fill="#00f3ff" />
<rect x="14" y="16" width="6" height="1" fill="#142026" />
<rect x="20" y="16" width="2" height="1" fill="#00f3ff" />
<rect x="22" y="16" width="20" height="1" fill="#142026" />
<rect x="42" y="16" width="2" height="1" fill="#00f3ff" />
<rect x="44" y="16" width="6" height="1" fill="#142026" />
<rect x="50" y="16" width="2" height="1" fill="#00f3ff" />
<rect x="52" y="16" width="4" height="1" fill="#142026" />
<rect x="8" y="17" width="4" height="1" fill="#142026" />
<rect x="12" y="17" width="2" height="1" fill="#00f3ff" />
<rect x="14" y="17" width="6" height="1" fill="#142026" />
<rect x="20" y="17" width="2" height="1" fill="#00f3ff" />
<rect x="22" y="17" width="20" height="1" fill="#142026" />
<rect x="42" y="17" width="2" height="1" fill="#00f3ff" />
<rect x="44" y="17" width="6" height="1" fill="#142026" />
<rect x="50" y="17" width="2" height="1" fill="#00f3ff" />
<rect x="52" y="17" width="4" height="1" fill="#142026" />
<rect x="8" y="18" width="2" height="1" fill="#142026" />
<rect x="10" y="18" width="2" height="1" fill="#00f3ff" />
<rect x="12" y="18" width="6" height="1" fill="#142026" />
<rect x="18" y="18" width="2" height="1" fill="#00f3ff" />
<rect x="20" y="18" width="10" height="1" fill="#142026" />
<rect x="30" y="18" width="2" height="1" fill="#00f3ff" />
<rect x="32" y="18" width="12" height="1" fill="#142026" />
<rect x="44" y="18" width="2" height="1" fill="#00f3ff" />
<rect x="46" y="18" width="6" height="1" fill="#142026" />
<rect x="52" y="18" width="2" height="1" fill="#00f3ff" />
<rect x="54" y="18" width="2" height="1" fill="#142026" />
<rect x="8" y="19" width="2" height="1" fill="#142026" />
<rect x="10" y="19" width="2" height="1" fill="#00f3ff" />
<rect x="12" y="19" width="6" height="1" fill="#142026" />
<rect x="18" y="19" width="2" height="1" fill="#00f3ff" />
<rect x="20" y="19" width="10" height="1" fill="#142026" />
<rect x="30" y="19" width="2" height="1" fill="#00f3ff" />
<rect x="32" y="19" width="12" height="1" fill="#142026" />
<rect x="44" y="19" width="2" height="1" fill="#00f3ff" />
<rect x="46" y="19" width="6" height="1" fill="#142026" />
<rect x="52" y="19" width="2" height="1" fill="#00f3ff" />
<rect x="54" y="19" width="2" height="1" fill="#142026" />
<rect x="6" y="20" width="2" height="1" fill="#142026" />
<rect x="8" y="20" width="2" height="1" fill="#00f3ff" />
<rect x="10" y="20" width="6" height="1" fill="#142026" />
<rect x="16" y="20" width="2" height="1" fill="#00f3ff" />
<rect x="18" y="20" width="8" height="1" fill="#142026" />
<rect x="26" y="20" width="4" height="1" fill="#00f3ff" />
<rect x="30" y="20" width="2" height="1" fill="#142026" />
<rect x="32" y="20" width="4" height="1" fill="#00f3ff" />
<rect x="36" y="20" width="10" height="1" fill="#142026" />
<rect x="46" y="20" width="2" height="1" fill="#00f3ff" />
<rect x="48" y="20" width="6" height="1" fill="#142026" />
<rect x="54" y="20" width="2" height="1" fill="#00f3ff" />
<rect x="56" y="20" width="2" height="1" fill="#142026" />
<rect x="6" y="21" width="2" height="1" fill="#142026" />
<rect x="8" y="21" width="2" height="1" fill="#00f3ff" />
<rect x="10" y="21" width="6" height="1" fill="#142026" />
<rect x="16" y="21" width="2" height="1" fill="#00f3ff" />
<rect x="18" y="21" width="8" height="1" fill="#142026" />
<rect x="26" y="21" width="4" height="1" fill="#00f3ff" />
<rect x="30" y="21" width="2" height="1" fill="#142026" />
<rect x="32" y="21" width="4" height="1" fill="#00f3ff" />
<rect x="36" y="21" width="10" height="1" fill="#142026" />
<rect x="46" y="21" width="2" height="1" fill="#00f3ff" />
<rect x="48" y="21" width="6" height="1" fill="#142026" />
<rect x="54" y="21" width="2" height="1" fill="#00f3ff" />
<rect x="56" y="21" width="2" height="1" fill="#142026" />
<rect x="6" y="22" width="2" height="1" fill="#142026" />
<rect x="8" y="22" width="2" height="1" fill="#00f3ff" />
<rect x="10" y="22" width="4" height="1" fill="#142026" />
<rect x="14" y="22" width="2" height="1" fill="#00f3ff" />
<rect x="16" y="22" width="6" height="1" fill="#142026" />
<rect x="22" y="22" width="4" height="1" fill="#00f3ff" />
<rect x="26" y="22" width="10" height="1" fill="#142026" />
<rect x="36" y="22" width="4" height="1" fill="#00f3ff" />
<rect x="40" y="22" width="8" height="1" fill="#142026" />
<rect x="48" y="22" width="2" height="1" fill="#00f3ff" />
<rect x="50" y="22" width="4" height="1" fill="#142026" />
<rect x="54" y="22" width="2" height="1" fill="#00f3ff" />
<rect x="56" y="22" width="2" height="1" fill="#142026" />
<rect x="6" y="23" width="2" height="1" fill="#142026" />
<rect x="8" y="23" width="2" height="1" fill="#00f3ff" />
<rect x="10" y="23" width="4" height="1" fill="#142026" />
<rect x="14" y="23" width="2" height="1" fill="#00f3ff" />
<rect x="16" y="23" width="6" height="1" fill="#142026" />
<rect x="22" y="23" width="4" height="1" fill="#00f3ff" />
<rect x="26" y="23" width="10" height="1" fill="#142026" />
<rect x="36" y="23" width="4" height="1" fill="#00f3ff" />
<rect x="40" y="23" width="8" height="1" fill="#142026" />
<rect x="48" y="23" width="2" height="1" fill="#00f3ff" />
<rect x="50" y="23" width="4" height="1" fill="#142026" />
<rect x="54" y="23" width="2" height="1" fill="#00f3ff" />
<rect x="56" y="23" width="2" height="1" fill="#142026" />
<rect x="4" y="24" width="4" height="1" fill="#142026" />
<rect x="8" y="24" width="2" height="1" fill="#00f3ff" />
<rect x="10" y="24" width="4" height="1" fill="#142026" />
<rect x="14" y="24" width="2" height="1" fill="#00f3ff" />
<rect x="16" y="24" width="4" height="1" fill="#142026" />
<rect x="20" y="24" width="2" height="1" fill="#00f3ff" />
<rect x="22" y="24" width="18" height="1" fill="#142026" />
<rect x="40" y="24" width="2" height="1" fill="#00f3ff" />
<rect x="42" y="24" width="6" height="1" fill="#142026" />
<rect x="48" y="24" width="2" height="1" fill="#00f3ff" />
<rect x="50" y="24" width="4" height="1" fill="#142026" />
<rect x="54" y="24" width="2" height="1" fill="#00f3ff" />
<rect x="56" y="24" width="4" height="1" fill="#142026" />
<rect x="4" y="25" width="4" height="1" fill="#142026" />
<rect x="8" y="25" width="2" height="1" fill="#00f3ff" />
<rect x="10" y="25" width="4" height="1" fill="#142026" />
<rect x="14" y="25" width="2" height="1" fill="#00f3ff" />
<rect x="16" y="25" width="4" height="1" fill="#142026" />
<rect x="20" y="25" width="2" height="1" fill="#00f3ff" />
<rect x="22" y="25" width="18" height="1" fill="#142026" />
<rect x="40" y="25" width="2" height="1" fill="#00f3ff" />
<rect x="42" y="25" width="6" height="1" fill="#142026" />
<rect x="48" y="25" width="2" height="1" fill="#00f3ff" />
<rect x="50" y="25" width="4" height="1" fill="#142026" />
<rect x="54" y="25" width="2" height="1" fill="#00f3ff" />
<rect x="56" y="25" width="4" height="1" fill="#142026" />
<rect x="4" y="26" width="2" height="1" fill="#142026" />
<rect x="6" y="26" width="2" height="1" fill="#00f3ff" />
<rect x="8" y="26" width="4" height="1" fill="#142026" />
<rect x="12" y="26" width="2" height="1" fill="#00f3ff" />
<rect x="14" y="26" width="6" height="1" fill="#142026" />
<rect x="20" y="26" width="6" height="1" fill="#00f3ff" />
<rect x="26" y="26" width="10" height="1" fill="#142026" />
<rect x="36" y="26" width="6" height="1" fill="#00f3ff" />
<rect x="42" y="26" width="8" height="1" fill="#142026" />
<rect x="50" y="26" width="2" height="1" fill="#00f3ff" />
<rect x="52" y="26" width="4" height="1" fill="#142026" />
<rect x="56" y="26" width="2" height="1" fill="#00f3ff" />
<rect x="58" y="26" width="2" height="1" fill="#142026" />
<rect x="4" y="27" width="2" height="1" fill="#142026" />
<rect x="6" y="27" width="2" height="1" fill="#00f3ff" />
<rect x="8" y="27" width="4" height="1" fill="#142026" />
<rect x="12" y="27" width="2" height="1" fill="#00f3ff" />
<rect x="14" y="27" width="6" height="1" fill="#142026" />
<rect x="20" y="27" width="6" height="1" fill="#00f3ff" />
<rect x="26" y="27" width="10" height="1" fill="#142026" />
<rect x="36" y="27" width="6" height="1" fill="#00f3ff" />
<rect x="42" y="27" width="8" height="1" fill="#142026" />
<rect x="50" y="27" width="2" height="1" fill="#00f3ff" />
<rect x="52" y="27" width="4" height="1" fill="#142026" />
<rect x="56" y="27" width="2" height="1" fill="#00f3ff" />
<rect x="58" y="27" width="2" height="1" fill="#142026" />
<rect x="0" y="28" width="8" height="1" fill="#00f3ff" />
<rect x="8" y="28" width="4" height="1" fill="#142026" />
<rect x="12" y="28" width="2" height="1" fill="#00f3ff" />
<rect x="14" y="28" width="6" height="1" fill="#142026" />
<rect x="20" y="28" width="2" height="1" fill="#00f3ff" />
<rect x="22" y="28" width="4" height="1" fill="#142026" />
<rect x="26" y="28" width="4" height="1" fill="#00f3ff" />
<rect x="30" y="28" width="2" height="1" fill="#142026" />
<rect x="32" y="28" width="4" height="1" fill="#00f3ff" />
<rect x="36" y="28" width="4" height="1" fill="#142026" />
<rect x="40" y="28" width="2" height="1" fill="#00f3ff" />
<rect x="42" y="28" width="8" height="1" fill="#142026" />
<rect x="50" y="28" width="2" height="1" fill="#00f3ff" />
<rect x="52" y="28" width="4" height="1" fill="#142026" />
<rect x="56" y="28" width="8" height="1" fill="#00f3ff" />
<rect x="0" y="29" width="8" height="1" fill="#00f3ff" />
<rect x="8" y="29" width="4" height="1" fill="#142026" />
<rect x="12" y="29" width="2" height="1" fill="#00f3ff" />
<rect x="14" y="29" width="6" height="1" fill="#142026" />
<rect x="20" y="29" width="2" height="1" fill="#00f3ff" />
<rect x="22" y="29" width="4" height="1" fill="#142026" />
<rect x="26" y="29" width="4" height="1" fill="#00f3ff" />
<rect x="30" y="29" width="2" height="1" fill="#142026" />
<rect x="32" y="29" width="4" height="1" fill="#00f3ff" />
<rect x="36" y="29" width="4" height="1" fill="#142026" />
<rect x="40" y="29" width="2" height="1" fill="#00f3ff" />
<rect x="42" y="29" width="8" height="1" fill="#142026" />
<rect x="50" y="29" width="2" height="1" fill="#00f3ff" />
<rect x="52" y="29" width="4" height="1" fill="#142026" />
<rect x="56" y="29" width="8" height="1" fill="#00f3ff" />
<rect x="0" y="30" width="8" height="1" fill="#00f3ff" />
<rect x="8" y="30" width="4" height="1" fill="#142026" />
<rect x="12" y="30" width="2" height="1" fill="#00f3ff" />
<rect x="14" y="30" width="6" height="1" fill="#142026" />
<rect x="20" y="30" width="2" height="1" fill="#00f3ff" />
<rect x="22" y="30" width="8" height="1" fill="#142026" />
<rect x="30" y="30" width="2" height="1" fill="#00f3ff" />
<rect x="32" y="30" width="8" height="1" fill="#142026" />
<rect x="40" y="30" width="2" height="1" fill="#00f3ff" />
<rect x="42" y="30" width="8" height="1" fill="#142026" />
<rect x="50" y="30" width="2" height="1" fill="#00f3ff" />
<rect x="52" y="30" width="4" height="1" fill="#142026" />
<rect x="56" y="30" width="8" height="1" fill="#00f3ff" />
<rect x="0" y="31" width="8" height="1" fill="#00f3ff" />
<rect x="8" y="31" width="4" height="1" fill="#142026" />
<rect x="12" y="31" width="2" height="1" fill="#00f3ff" />
<rect x="14" y="31" width="6" height="1" fill="#142026" />
<rect x="20" y="31" width="2" height="1" fill="#00f3ff" />
<rect x="22" y="31" width="8" height="1" fill="#142026" />
<rect x="30" y="31" width="2" height="1" fill="#00f3ff" />
<rect x="32" y="31" width="8" height="1" fill="#142026" />
<rect x="40" y="31" width="2" height="1" fill="#00f3ff" />
<rect x="42" y="31" width="8" height="1" fill="#142026" />
<rect x="50" y="31" width="2" height="1" fill="#00f3ff" />
<rect x="52" y="31" width="4" height="1" fill="#142026" />
<rect x="56" y="31" width="8" height="1" fill="#00f3ff" />
<rect x="0" y="32" width="8" height="1" fill="#00f3ff" />
<rect x="8" y="32" width="4" height="1" fill="#142026" />
<rect x="12" y="32" width="2" height="1" fill="#00f3ff" />
<rect x="14" y="32" width="6" height="1" fill="#142026" />
<rect x="20" y="32" width="2" height="1" fill="#00f3ff" />
<rect x="22" y="32" width="8" height="1" fill="#142026" />
<rect x="30" y="32" width="2" height="1" fill="#00f3ff" />
<rect x="32" y="32" width="8" height="1" fill="#142026" />
<rect x="40" y="32" width="2" height="1" fill="#00f3ff" />
<rect x="42" y="32" width="8" height="1" fill="#142026" />
<rect x="50" y="32" width="2" height="1" fill="#00f3ff" />
<rect x="52" y="32" width="4" height="1" fill="#142026" />
<rect x="56" y="32" width="8" height="1" fill="#00f3ff" />
<rect x="0" y="33" width="8" height="1" fill="#00f3ff" />
<rect x="8" y="33" width="4" height="1" fill="#142026" />
<rect x="12" y="33" width="2" height="1" fill="#00f3ff" />
<rect x="14" y="33" width="6" height="1" fill="#142026" />
<rect x="20" y="33" width="2" height="1" fill="#00f3ff" />
<rect x="22" y="33" width="8" height="1" fill="#142026" />
<rect x="30" y="33" width="2" height="1" fill="#00f3ff" />
<rect x="32" y="33" width="8" height="1" fill="#142026" />
<rect x="40" y="33" width="2" height="1" fill="#00f3ff" />
<rect x="42" y="33" width="8" height="1" fill="#142026" />
<rect x="50" y="33" width="2" height="1" fill="#00f3ff" />
<rect x="52" y="33" width="4" height="1" fill="#142026" />
<rect x="56" y="33" width="8" height="1" fill="#00f3ff" />
<rect x="0" y="34" width="8" height="1" fill="#00f3ff" />
<rect x="8" y="34" width="4" height="1" fill="#142026" />
<rect x="12" y="34" width="2" height="1" fill="#00f3ff" />
<rect x="14" y="34" width="6" height="1" fill="#142026" />
<rect x="20" y="34" width="2" height="1" fill="#00f3ff" />
<rect x="22" y="34" width="8" height="1" fill="#142026" />
<rect x="30" y="34" width="2" height="1" fill="#00f3ff" />
<rect x="32" y="34" width="8" height="1" fill="#142026" />
<rect x="40" y="34" width="2" height="1" fill="#00f3ff" />
<rect x="42" y="34" width="8" height="1" fill="#142026" />
<rect x="50" y="34" width="2" height="1" fill="#00f3ff" />
<rect x="52" y="34" width="4" height="1" fill="#142026" />
<rect x="56" y="34" width="8" height="1" fill="#00f3ff" />
<rect x="0" y="35" width="8" height="1" fill="#00f3ff" />
<rect x="8" y="35" width="4" height="1" fill="#142026" />
<rect x="12" y="35" width="2" height="1" fill="#00f3ff" />
<rect x="14" y="35" width="6" height="1" fill="#142026" />
<rect x="20" y="35" width="2" height="1" fill="#00f3ff" />
<rect x="22" y="35" width="8" height="1" fill="#142026" />
<rect x="30" y="35" width="2" height="1" fill="#00f3ff" />
<rect x="32" y="35" width="8" height="1" fill="#142026" />
<rect x="40" y="35" width="2" height="1" fill="#00f3ff" />
<rect x="42" y="35" width="8" height="1" fill="#142026" />
<rect x="50" y="35" width="2" height="1" fill="#00f3ff" />
<rect x="52" y="35" width="4" height="1" fill="#142026" />
<rect x="56" y="35" width="8" height="1" fill="#00f3ff" />
<rect x="4" y="36" width="2" height="1" fill="#142026" />
<rect x="6" y="36" width="2" height="1" fill="#00f3ff" />
<rect x="8" y="36" width="4" height="1" fill="#142026" />
<rect x="12" y="36" width="2" height="1" fill="#00f3ff" />
<rect x="14" y="36" width="6" height="1" fill="#142026" />
<rect x="20" y="36" width="2" height="1" fill="#00f3ff" />
<rect x="22" y="36" width="8" height="1" fill="#142026" />
<rect x="30" y="36" width="2" height="1" fill="#00f3ff" />
<rect x="32" y="36" width="8" height="1" fill="#142026" />
<rect x="40" y="36" width="2" height="1" fill="#00f3ff" />
<rect x="42" y="36" width="8" height="1" fill="#142026" />
<rect x="50" y="36" width="2" height="1" fill="#00f3ff" />
<rect x="52" y="36" width="4" height="1" fill="#142026" />
<rect x="56" y="36" width="2" height="1" fill="#00f3ff" />
<rect x="58" y="36" width="2" height="1" fill="#142026" />
<rect x="4" y="37" width="2" height="1" fill="#142026" />
<rect x="6" y="37" width="2" height="1" fill="#00f3ff" />
<rect x="8" y="37" width="4" height="1" fill="#142026" />
<rect x="12" y="37" width="2" height="1" fill="#00f3ff" />
<rect x="14" y="37" width="6" height="1" fill="#142026" />
<rect x="20" y="37" width="2" height="1" fill="#00f3ff" />
<rect x="22" y="37" width="8" height="1" fill="#142026" />
<rect x="30" y="37" width="2" height="1" fill="#00f3ff" />
<rect x="32" y="37" width="8" height="1" fill="#142026" />
<rect x="40" y="37" width="2" height="1" fill="#00f3ff" />
<rect x="42" y="37" width="8" height="1" fill="#142026" />
<rect x="50" y="37" width="2" height="1" fill="#00f3ff" />
<rect x="52" y="37" width="4" height="1" fill="#142026" />
<rect x="56" y="37" width="2" height="1" fill="#00f3ff" />
<rect x="58" y="37" width="2" height="1" fill="#142026" />
<rect x="4" y="38" width="4" height="1" fill="#142026" />
<rect x="8" y="38" width="2" height="1" fill="#00f3ff" />
<rect x="10" y="38" width="4" height="1" fill="#142026" />
<rect x="14" y="38" width="2" height="1" fill="#00f3ff" />
<rect x="16" y="38" width="6" height="1" fill="#142026" />
<rect x="22" y="38" width="4" height="1" fill="#00f3ff" />
<rect x="26" y="38" width="4" height="1" fill="#142026" />
<rect x="30" y="38" width="2" height="1" fill="#00f3ff" />
<rect x="32" y="38" width="4" height="1" fill="#142026" />
<rect x="36" y="38" width="4" height="1" fill="#00f3ff" />
<rect x="40" y="38" width="8" height="1" fill="#142026" />
<rect x="48" y="38" width="2" height="1" fill="#00f3ff" />
<rect x="50" y="38" width="4" height="1" fill="#142026" />
<rect x="54" y="38" width="2" height="1" fill="#00f3ff" />
<rect x="56" y="38" width="4" height="1" fill="#142026" />
<rect x="4" y="39" width="4" height="1" fill="#142026" />
<rect x="8" y="39" width="2" height="1" fill="#00f3ff" />
<rect x="10" y="39" width="4" height="1" fill="#142026" />
<rect x="14" y="39" width="2" height="1" fill="#00f3ff" />
<rect x="16" y="39" width="6" height="1" fill="#142026" />
<rect x="22" y="39" width="4" height="1" fill="#00f3ff" />
<rect x="26" y="39" width="4" height="1" fill="#142026" />
<rect x="30" y="39" width="2" height="1" fill="#00f3ff" />
<rect x="32" y="39" width="4" height="1" fill="#142026" />
<rect x="36" y="39" width="4" height="1" fill="#00f3ff" />
<rect x="40" y="39" width="8" height="1" fill="#142026" />
<rect x="48" y="39" width="2" height="1" fill="#00f3ff" />
<rect x="50" y="39" width="4" height="1" fill="#142026" />
<rect x="54" y="39" width="2" height="1" fill="#00f3ff" />
<rect x="56" y="39" width="4" height="1" fill="#142026" />
<rect x="6" y="40" width="2" height="1" fill="#142026" />
<rect x="8" y="40" width="2" height="1" fill="#00f3ff" />
<rect x="10" y="40" width="4" height="1" fill="#142026" />
<rect x="14" y="40" width="2" height="1" fill="#00f3ff" />
<rect x="16" y="40" width="10" height="1" fill="#142026" />
<rect x="26" y="40" width="10" height="1" fill="#00f3ff" />
<rect x="36" y="40" width="12" height="1" fill="#142026" />
<rect x="48" y="40" width="2" height="1" fill="#00f3ff" />
<rect x="50" y="40" width="4" height="1" fill="#142026" />
<rect x="54" y="40" width="2" height="1" fill="#00f3ff" />
<rect x="56" y="40" width="2" height="1" fill="#142026" />
<rect x="6" y="41" width="2" height="1" fill="#142026" />
<rect x="8" y="41" width="2" height="1" fill="#00f3ff" />
<rect x="10" y="41" width="4" height="1" fill="#142026" />
<rect x="14" y="41" width="2" height="1" fill="#00f3ff" />
<rect x="16" y="41" width="10" height="1" fill="#142026" />
<rect x="26" y="41" width="10" height="1" fill="#00f3ff" />
<rect x="36" y="41" width="12" height="1" fill="#142026" />
<rect x="48" y="41" width="2" height="1" fill="#00f3ff" />
<rect x="50" y="41" width="4" height="1" fill="#142026" />
<rect x="54" y="41" width="2" height="1" fill="#00f3ff" />
<rect x="56" y="41" width="2" height="1" fill="#142026" />
<rect x="6" y="42" width="2" height="1" fill="#142026" />
<rect x="8" y="42" width="2" height="1" fill="#00f3ff" />
<rect x="10" y="42" width="6" height="1" fill="#142026" />
<rect x="16" y="42" width="2" height="1" fill="#00f3ff" />
<rect x="18" y="42" width="12" height="1" fill="#142026" />
<rect x="30" y="42" width="2" height="1" fill="#00f3ff" />
<rect x="32" y="42" width="14" height="1" fill="#142026" />
<rect x="46" y="42" width="2" height="1" fill="#00f3ff" />
<rect x="48" y="42" width="6" height="1" fill="#142026" />
<rect x="54" y="42" width="2" height="1" fill="#00f3ff" />
<rect x="56" y="42" width="2" height="1" fill="#142026" />
<rect x="6" y="43" width="2" height="1" fill="#142026" />
<rect x="8" y="43" width="2" height="1" fill="#00f3ff" />
<rect x="10" y="43" width="6" height="1" fill="#142026" />
<rect x="16" y="43" width="2" height="1" fill="#00f3ff" />
<rect x="18" y="43" width="12" height="1" fill="#142026" />
<rect x="30" y="43" width="2" height="1" fill="#00f3ff" />
<rect x="32" y="43" width="14" height="1" fill="#142026" />
<rect x="46" y="43" width="2" height="1" fill="#00f3ff" />
<rect x="48" y="43" width="6" height="1" fill="#142026" />
<rect x="54" y="43" width="2" height="1" fill="#00f3ff" />
<rect x="56" y="43" width="2" height="1" fill="#142026" />
<rect x="8" y="44" width="2" height="1" fill="#142026" />
<rect x="10" y="44" width="2" height="1" fill="#00f3ff" />
<rect x="12" y="44" width="6" height="1" fill="#142026" />
<rect x="18" y="44" width="2" height="1" fill="#00f3ff" />
<rect x="20" y="44" width="24" height="1" fill="#142026" />
<rect x="44" y="44" width="2" height="1" fill="#00f3ff" />
<rect x="46" y="44" width="6" height="1" fill="#142026" />
<rect x="52" y="44" width="2" height="1" fill="#00f3ff" />
<rect x="54" y="44" width="2" height="1" fill="#142026" />
<rect x="8" y="45" width="2" height="1" fill="#142026" />
<rect x="10" y="45" width="2" height="1" fill="#00f3ff" />
<rect x="12" y="45" width="6" height="1" fill="#142026" />
<rect x="18" y="45" width="2" height="1" fill="#00f3ff" />
<rect x="20" y="45" width="24" height="1" fill="#142026" />
<rect x="44" y="45" width="2" height="1" fill="#00f3ff" />
<rect x="46" y="45" width="6" height="1" fill="#142026" />
<rect x="52" y="45" width="2" height="1" fill="#00f3ff" />
<rect x="54" y="45" width="2" height="1" fill="#142026" />
<rect x="8" y="46" width="4" height="1" fill="#142026" />
<rect x="12" y="46" width="2" height="1" fill="#00f3ff" />
<rect x="14" y="46" width="6" height="1" fill="#142026" />
<rect x="20" y="46" width="2" height="1" fill="#00f3ff" />
<rect x="22" y="46" width="20" height="1" fill="#142026" />
<rect x="42" y="46" width="2" height="1" fill="#00f3ff" />
<rect x="44" y="46" width="6" height="1" fill="#142026" />
<rect x="50" y="46" width="2" height="1" fill="#00f3ff" />
<rect x="52" y="46" width="4" height="1" fill="#142026" />
<rect x="8" y="47" width="4" height="1" fill="#142026" />
<rect x="12" y="47" width="2" height="1" fill="#00f3ff" />
<rect x="14" y="47" width="6" height="1" fill="#142026" />
<rect x="20" y="47" width="2" height="1" fill="#00f3ff" />
<rect x="22" y="47" width="20" height="1" fill="#142026" />
<rect x="42" y="47" width="2" height="1" fill="#00f3ff" />
<rect x="44" y="47" width="6" height="1" fill="#142026" />
<rect x="50" y="47" width="2" height="1" fill="#00f3ff" />
<rect x="52" y="47" width="4" height="1" fill="#142026" />
<rect x="8" y="48" width="8" height="1" fill="#00f3ff" />
<rect x="16" y="48" width="6" height="1" fill="#142026" />
<rect x="22" y="48" width="4" height="1" fill="#00f3ff" />
<rect x="26" y="48" width="12" height="1" fill="#142026" />
<rect x="38" y="48" width="4" height="1" fill="#00f3ff" />
<rect x="42" y="48" width="6" height="1" fill="#142026" />
<rect x="48" y="48" width="8" height="1" fill="#00f3ff" />
<rect x="8" y="49" width="8" height="1" fill="#00f3ff" />
<rect x="16" y="49" width="6" height="1" fill="#142026" />
<rect x="22" y="49" width="4" height="1" fill="#00f3ff" />
<rect x="26" y="49" width="12" height="1" fill="#142026" />
<rect x="38" y="49" width="4" height="1" fill="#00f3ff" />
<rect x="42" y="49" width="6" height="1" fill="#142026" />
<rect x="48" y="49" width="8" height="1" fill="#00f3ff" />
<rect x="8" y="50" width="10" height="1" fill="#00f3ff" />
<rect x="18" y="50" width="8" height="1" fill="#142026" />
<rect x="26" y="50" width="12" height="1" fill="#00f3ff" />
<rect x="38" y="50" width="8" height="1" fill="#142026" />
<rect x="46" y="50" width="10" height="1" fill="#00f3ff" />
<rect x="8" y="51" width="10" height="1" fill="#00f3ff" />
<rect x="18" y="51" width="8" height="1" fill="#142026" />
<rect x="26" y="51" width="12" height="1" fill="#00f3ff" />
<rect x="38" y="51" width="8" height="1" fill="#142026" />
<rect x="46" y="51" width="10" height="1" fill="#00f3ff" />
<rect x="8" y="52" width="8" height="1" fill="#00f3ff" />
<rect x="16" y="52" width="2" height="1" fill="#142026" />
<rect x="18" y="52" width="2" height="1" fill="#00f3ff" />
<rect x="20" y="52" width="24" height="1" fill="#142026" />
<rect x="44" y="52" width="2" height="1" fill="#00f3ff" />
<rect x="46" y="52" width="2" height="1" fill="#142026" />
<rect x="48" y="52" width="8" height="1" fill="#00f3ff" />
<rect x="8" y="53" width="8" height="1" fill="#00f3ff" />
<rect x="16" y="53" width="2" height="1" fill="#142026" />
<rect x="18" y="53" width="2" height="1" fill="#00f3ff" />
<rect x="20" y="53" width="24" height="1" fill="#142026" />
<rect x="44" y="53" width="2" height="1" fill="#00f3ff" />
<rect x="46" y="53" width="2" height="1" fill="#142026" />
<rect x="48" y="53" width="8" height="1" fill="#00f3ff" />
<rect x="8" y="54" width="8" height="1" fill="#00f3ff" />
<rect x="16" y="54" width="4" height="1" fill="#142026" />
<rect x="20" y="54" width="6" height="1" fill="#00f3ff" />
<rect x="26" y="54" width="12" height="1" fill="#142026" />
<rect x="38" y="54" width="6" height="1" fill="#00f3ff" />
<rect x="44" y="54" width="4" height="1" fill="#142026" />
<rect x="48" y="54" width="8" height="1" fill="#00f3ff" />
<rect x="8" y="55" width="8" height="1" fill="#00f3ff" />
<rect x="16" y="55" width="4" height="1" fill="#142026" />
<rect x="20" y="55" width="6" height="1" fill="#00f3ff" />
<rect x="26" y="55" width="12" height="1" fill="#142026" />
<rect x="38" y="55" width="6" height="1" fill="#00f3ff" />
<rect x="44" y="55" width="4" height="1" fill="#142026" />
<rect x="48" y="55" width="8" height="1" fill="#00f3ff" />
<rect x="20" y="56" width="6" height="1" fill="#142026" />
<rect x="26" y="56" width="12" height="1" fill="#00f3ff" />
<rect x="38" y="56" width="6" height="1" fill="#142026" />
<rect x="20" y="57" width="6" height="1" fill="#142026" />
<rect x="26" y="57" width="12" height="1" fill="#00f3ff" />
<rect x="38" y="57" width="6" height="1" fill="#142026" />
<rect x="24" y="58" width="4" height="1" fill="#142026" />
<rect x="28" y="58" width="8" height="1" fill="#00f3ff" />
<rect x="36" y="58" width="4" height="1" fill="#142026" />
<rect x="24" y="59" width="4" height="1" fill="#142026" />
<rect x="28" y="59" width="8" height="1" fill="#00f3ff" />
<rect x="36" y="59" width="4" height="1" fill="#142026" />
<rect x="28" y="60" width="8" height="1" fill="#00f3ff" />
<rect x="28" y="61" width="8" height="1" fill="#00f3ff" />
<rect x="28" y="62" width="8" height="1" fill="#00f3ff" />
<rect x="28" y="63" width="8" height="1" fill="#00f3ff" />
</svg>
